<mxfile host="app.diagrams.net" agent="Mozilla/5.0 (Windows NT 10.0; Win64; x64) AppleWebKit/537.36 (KHTML, like Gecko) Chrome/139.0.0.0 Safari/537.36" version="28.2.0">
  <diagram name="Page-1" id="f37OgjoAPN8hhXPlbtoQ">
    <mxGraphModel dx="918" dy="462" grid="1" gridSize="10" guides="1" tooltips="1" connect="1" arrows="1" fold="1" page="1" pageScale="1" pageWidth="827" pageHeight="1169" math="0" shadow="0">
      <root>
        <mxCell id="0" />
        <mxCell id="1" parent="0" />
        <mxCell id="8u2EdssxG0yrt-qQL1OU-74" value="" style="group" vertex="1" connectable="0" parent="1">
          <mxGeometry x="70" y="40" width="660" height="720" as="geometry" />
        </mxCell>
        <mxCell id="8u2EdssxG0yrt-qQL1OU-76" value="" style="rounded=0;whiteSpace=wrap;html=1;fillColor=#f5f5f5;fontColor=#333333;strokeColor=#666666;" vertex="1" parent="8u2EdssxG0yrt-qQL1OU-74">
          <mxGeometry x="-26" y="-20.57142857142857" width="686" height="740.5714285714284" as="geometry" />
        </mxCell>
        <mxCell id="8u2EdssxG0yrt-qQL1OU-1" value="&lt;font style=&quot;color: rgb(0, 102, 0);&quot;&gt;Earth Observation Datasets&lt;/font&gt;" style="rounded=1;whiteSpace=wrap;html=1;fontStyle=1;fontSize=17;fillColor=#ffe6cc;strokeColor=light-dark(#006600,#996500);" vertex="1" parent="8u2EdssxG0yrt-qQL1OU-74">
          <mxGeometry x="179.5" width="306" height="41.14285714285714" as="geometry" />
        </mxCell>
        <mxCell id="8u2EdssxG0yrt-qQL1OU-2" value="&lt;font style=&quot;font-size: 17px; color: rgb(0, 102, 0);&quot;&gt;Digital Elevation Model&lt;/font&gt;" style="rounded=1;whiteSpace=wrap;html=1;fillColor=#ffe6cc;strokeColor=#006600;fontStyle=1" vertex="1" parent="8u2EdssxG0yrt-qQL1OU-74">
          <mxGeometry x="47.5" y="72" width="230" height="41.14285714285714" as="geometry" />
        </mxCell>
        <mxCell id="8u2EdssxG0yrt-qQL1OU-13" value="&lt;font style=&quot;font-size: 17px; color: rgb(0, 102, 0);&quot;&gt;&lt;b&gt;Landsat 8 OLI (2024)&lt;/b&gt;&lt;/font&gt;" style="rounded=1;whiteSpace=wrap;html=1;fillColor=#ffe6cc;strokeColor=light-dark(#006600,#996500);" vertex="1" parent="8u2EdssxG0yrt-qQL1OU-74">
          <mxGeometry x="392.5" y="72" width="190" height="41.14285714285714" as="geometry" />
        </mxCell>
        <mxCell id="8u2EdssxG0yrt-qQL1OU-14" value="&lt;font style=&quot;font-size: 17px; color: rgb(0, 102, 0);&quot;&gt;Preprocessing&amp;nbsp;&lt;/font&gt;" style="rounded=1;whiteSpace=wrap;html=1;fillColor=#ffe6cc;strokeColor=#006600;fontStyle=1" vertex="1" parent="8u2EdssxG0yrt-qQL1OU-74">
          <mxGeometry x="205.5" y="154.28571428571428" width="280" height="41.14285714285714" as="geometry" />
        </mxCell>
        <mxCell id="8u2EdssxG0yrt-qQL1OU-15" value="&lt;font style=&quot;font-size: 17px; color: rgb(0, 102, 0);&quot;&gt;Biophysical variables&lt;/font&gt;" style="rounded=1;whiteSpace=wrap;html=1;fillColor=#ffe6cc;strokeColor=#006600;fontStyle=1" vertex="1" parent="8u2EdssxG0yrt-qQL1OU-74">
          <mxGeometry x="205.5" y="236.57142857142856" width="277" height="41.14285714285714" as="geometry" />
        </mxCell>
        <mxCell id="8u2EdssxG0yrt-qQL1OU-16" value="&lt;font style=&quot;font-size: 17px; color: rgb(0, 102, 0);&quot;&gt;LULC&lt;/font&gt;" style="rounded=1;whiteSpace=wrap;html=1;fillColor=#ffe6cc;strokeColor=#006600;fontStyle=1" vertex="1" parent="8u2EdssxG0yrt-qQL1OU-74">
          <mxGeometry x="2.5" y="318.85714285714283" width="82" height="41.14285714285714" as="geometry" />
        </mxCell>
        <mxCell id="8u2EdssxG0yrt-qQL1OU-17" value="&lt;font style=&quot;font-size: 17px; color: rgb(0, 102, 0);&quot;&gt;Literature Review and field observation&lt;/font&gt;" style="rounded=1;whiteSpace=wrap;html=1;fillColor=#ffe6cc;strokeColor=#006600;fontStyle=1" vertex="1" parent="8u2EdssxG0yrt-qQL1OU-74">
          <mxGeometry x="2.5" y="174.85714285714283" width="132" height="113.14285714285714" as="geometry" />
        </mxCell>
        <mxCell id="8u2EdssxG0yrt-qQL1OU-18" value="&lt;font style=&quot;font-size: 17px; color: rgb(0, 102, 0);&quot;&gt;TWI&lt;/font&gt;" style="rounded=1;whiteSpace=wrap;html=1;fillColor=#ffe6cc;strokeColor=#006600;fontStyle=1" vertex="1" parent="8u2EdssxG0yrt-qQL1OU-74">
          <mxGeometry x="142.5" y="318.85714285714283" width="80" height="41.14285714285714" as="geometry" />
        </mxCell>
        <mxCell id="8u2EdssxG0yrt-qQL1OU-19" value="&lt;font style=&quot;font-size: 17px; color: rgb(0, 102, 0);&quot;&gt;Drainage Density&lt;/font&gt;" style="rounded=1;whiteSpace=wrap;html=1;fillColor=#ffe6cc;strokeColor=#006600;fontStyle=1" vertex="1" parent="8u2EdssxG0yrt-qQL1OU-74">
          <mxGeometry x="237.5" y="318.85714285714283" width="110" height="41.14285714285714" as="geometry" />
        </mxCell>
        <mxCell id="8u2EdssxG0yrt-qQL1OU-20" value="&lt;font style=&quot;font-size: 17px; color: rgb(0, 102, 0);&quot;&gt;Slope&lt;/font&gt;" style="rounded=1;whiteSpace=wrap;html=1;fillColor=#ffe6cc;strokeColor=#006600;fontStyle=1" vertex="1" parent="8u2EdssxG0yrt-qQL1OU-74">
          <mxGeometry x="362.5" y="318.85714285714283" width="70" height="41.14285714285714" as="geometry" />
        </mxCell>
        <mxCell id="8u2EdssxG0yrt-qQL1OU-21" value="&lt;font style=&quot;font-size: 17px; color: rgb(0, 102, 0);&quot;&gt;Rainfall&lt;/font&gt;" style="rounded=1;whiteSpace=wrap;html=1;fillColor=#ffe6cc;strokeColor=#006600;fontStyle=1" vertex="1" parent="8u2EdssxG0yrt-qQL1OU-74">
          <mxGeometry x="462.5" y="318.85714285714283" width="80" height="41.14285714285714" as="geometry" />
        </mxCell>
        <mxCell id="8u2EdssxG0yrt-qQL1OU-22" value="&lt;font style=&quot;font-size: 17px; color: rgb(0, 102, 0);&quot;&gt;Soil texture&lt;/font&gt;" style="rounded=1;whiteSpace=wrap;html=1;fillColor=#ffe6cc;strokeColor=#006600;fontStyle=1" vertex="1" parent="8u2EdssxG0yrt-qQL1OU-74">
          <mxGeometry x="562.5" y="318.85714285714283" width="81.5" height="41.14285714285714" as="geometry" />
        </mxCell>
        <mxCell id="8u2EdssxG0yrt-qQL1OU-23" value="&lt;font style=&quot;font-size: 17px; color: rgb(0, 102, 0);&quot;&gt;Field soil sampling&lt;/font&gt;" style="rounded=1;whiteSpace=wrap;html=1;fillColor=#ffe6cc;strokeColor=#006600;fontStyle=1" vertex="1" parent="8u2EdssxG0yrt-qQL1OU-74">
          <mxGeometry x="544" y="185.1428571428571" width="100" height="72" as="geometry" />
        </mxCell>
        <mxCell id="8u2EdssxG0yrt-qQL1OU-24" value="&lt;font style=&quot;font-size: 17px; color: rgb(0, 102, 0);&quot;&gt;Expert Decision&amp;nbsp;&lt;/font&gt;" style="rounded=1;whiteSpace=wrap;html=1;fillColor=#ffe6cc;strokeColor=#006600;fontStyle=1" vertex="1" parent="8u2EdssxG0yrt-qQL1OU-74">
          <mxGeometry x="2.5" y="401.1428571428571" width="154" height="41.14285714285714" as="geometry" />
        </mxCell>
        <mxCell id="8u2EdssxG0yrt-qQL1OU-62" style="edgeStyle=orthogonalEdgeStyle;rounded=0;orthogonalLoop=1;jettySize=auto;html=1;exitX=1;exitY=0.5;exitDx=0;exitDy=0;entryX=0;entryY=0.5;entryDx=0;entryDy=0;" edge="1" parent="8u2EdssxG0yrt-qQL1OU-74" source="8u2EdssxG0yrt-qQL1OU-25" target="8u2EdssxG0yrt-qQL1OU-26">
          <mxGeometry relative="1" as="geometry" />
        </mxCell>
        <mxCell id="8u2EdssxG0yrt-qQL1OU-64" style="edgeStyle=orthogonalEdgeStyle;rounded=0;orthogonalLoop=1;jettySize=auto;html=1;exitX=0.5;exitY=1;exitDx=0;exitDy=0;entryX=0.5;entryY=0;entryDx=0;entryDy=0;" edge="1" parent="8u2EdssxG0yrt-qQL1OU-74" source="8u2EdssxG0yrt-qQL1OU-25" target="8u2EdssxG0yrt-qQL1OU-28">
          <mxGeometry relative="1" as="geometry" />
        </mxCell>
        <mxCell id="8u2EdssxG0yrt-qQL1OU-25" value="&lt;font style=&quot;font-size: 17px; color: rgb(0, 102, 0);&quot;&gt;Fuzzy DEMATEL&lt;/font&gt;" style="rounded=1;whiteSpace=wrap;html=1;fillColor=#ffe6cc;strokeColor=#006600;fontStyle=1" vertex="1" parent="8u2EdssxG0yrt-qQL1OU-74">
          <mxGeometry x="2.5" y="473.1428571428571" width="195" height="51.42857142857142" as="geometry" />
        </mxCell>
        <mxCell id="8u2EdssxG0yrt-qQL1OU-63" style="edgeStyle=orthogonalEdgeStyle;rounded=0;orthogonalLoop=1;jettySize=auto;html=1;exitX=1;exitY=0.5;exitDx=0;exitDy=0;entryX=0;entryY=0.5;entryDx=0;entryDy=0;" edge="1" parent="8u2EdssxG0yrt-qQL1OU-74" source="8u2EdssxG0yrt-qQL1OU-26" target="8u2EdssxG0yrt-qQL1OU-29">
          <mxGeometry relative="1" as="geometry" />
        </mxCell>
        <mxCell id="8u2EdssxG0yrt-qQL1OU-26" value="&lt;font style=&quot;font-size: 17px; color: rgb(0, 102, 0);&quot;&gt;DANP&lt;/font&gt;" style="rounded=1;whiteSpace=wrap;html=1;fillColor=#ffe6cc;strokeColor=#006600;fontStyle=1" vertex="1" parent="8u2EdssxG0yrt-qQL1OU-74">
          <mxGeometry x="280.5" y="473.1428571428571" width="112" height="51.42857142857142" as="geometry" />
        </mxCell>
        <mxCell id="8u2EdssxG0yrt-qQL1OU-60" style="edgeStyle=orthogonalEdgeStyle;rounded=0;orthogonalLoop=1;jettySize=auto;html=1;exitX=0;exitY=0.5;exitDx=0;exitDy=0;entryX=1;entryY=0.5;entryDx=0;entryDy=0;" edge="1" parent="8u2EdssxG0yrt-qQL1OU-74" source="8u2EdssxG0yrt-qQL1OU-27" target="8u2EdssxG0yrt-qQL1OU-24">
          <mxGeometry relative="1" as="geometry" />
        </mxCell>
        <mxCell id="8u2EdssxG0yrt-qQL1OU-27" value="&lt;font style=&quot;font-size: 17px; color: rgb(0, 102, 0);&quot;&gt;Correlation and VIF Analysis&lt;/font&gt;" style="rounded=1;whiteSpace=wrap;html=1;fillColor=#ffe6cc;strokeColor=#006600;fontStyle=1" vertex="1" parent="8u2EdssxG0yrt-qQL1OU-74">
          <mxGeometry x="251" y="401.1428571428571" width="293" height="41.14285714285714" as="geometry" />
        </mxCell>
        <mxCell id="8u2EdssxG0yrt-qQL1OU-66" style="edgeStyle=orthogonalEdgeStyle;rounded=0;orthogonalLoop=1;jettySize=auto;html=1;exitX=1;exitY=0.5;exitDx=0;exitDy=0;" edge="1" parent="8u2EdssxG0yrt-qQL1OU-74" source="8u2EdssxG0yrt-qQL1OU-28">
          <mxGeometry relative="1" as="geometry">
            <mxPoint x="582.5" y="581.1428571428571" as="targetPoint" />
          </mxGeometry>
        </mxCell>
        <mxCell id="8u2EdssxG0yrt-qQL1OU-28" value="&lt;font style=&quot;font-size: 17px; color: rgb(0, 102, 0);&quot;&gt;Influence Network Map&amp;nbsp;&lt;/font&gt;" style="rounded=1;whiteSpace=wrap;html=1;fillColor=#ffe6cc;strokeColor=#1A3300;fontStyle=1" vertex="1" parent="8u2EdssxG0yrt-qQL1OU-74">
          <mxGeometry x="2.5" y="555.4285714285713" width="200" height="51.42857142857142" as="geometry" />
        </mxCell>
        <mxCell id="8u2EdssxG0yrt-qQL1OU-29" value="&lt;font style=&quot;font-size: 17px; color: rgb(0, 102, 0);&quot;&gt;TOPSIS&lt;/font&gt;" style="rounded=1;whiteSpace=wrap;html=1;fillColor=#ffe6cc;strokeColor=#006600;fontStyle=1" vertex="1" parent="8u2EdssxG0yrt-qQL1OU-74">
          <mxGeometry x="532" y="473.1428571428571" width="112" height="51.42857142857142" as="geometry" />
        </mxCell>
        <mxCell id="8u2EdssxG0yrt-qQL1OU-69" style="edgeStyle=orthogonalEdgeStyle;rounded=0;orthogonalLoop=1;jettySize=auto;html=1;exitX=0.5;exitY=1;exitDx=0;exitDy=0;entryX=1;entryY=0.75;entryDx=0;entryDy=0;" edge="1" parent="8u2EdssxG0yrt-qQL1OU-74" source="8u2EdssxG0yrt-qQL1OU-30" target="8u2EdssxG0yrt-qQL1OU-31">
          <mxGeometry relative="1" as="geometry" />
        </mxCell>
        <mxCell id="8u2EdssxG0yrt-qQL1OU-30" value="&lt;font style=&quot;font-size: 17px; color: rgb(0, 102, 0);&quot;&gt;Prioritization of Sub-watershed&amp;nbsp;&lt;/font&gt;" style="rounded=1;whiteSpace=wrap;html=1;fillColor=#ffe6cc;strokeColor=light-dark(#1f1f1e, #996500);fontStyle=1" vertex="1" parent="8u2EdssxG0yrt-qQL1OU-74">
          <mxGeometry x="444" y="606.8571428571429" width="200" height="51.42857142857142" as="geometry" />
        </mxCell>
        <mxCell id="8u2EdssxG0yrt-qQL1OU-31" value="&lt;font style=&quot;font-size: 17px; color: rgb(0, 102, 0);&quot;&gt;Validation&lt;/font&gt;" style="rounded=1;whiteSpace=wrap;html=1;fillColor=#ffe6cc;strokeColor=light-dark(#1f1f1e, #996500);fontStyle=1" vertex="1" parent="8u2EdssxG0yrt-qQL1OU-74">
          <mxGeometry x="256.5" y="658.2857142857142" width="160" height="51.42857142857142" as="geometry" />
        </mxCell>
        <mxCell id="8u2EdssxG0yrt-qQL1OU-72" style="edgeStyle=orthogonalEdgeStyle;rounded=0;orthogonalLoop=1;jettySize=auto;html=1;exitX=1;exitY=0.5;exitDx=0;exitDy=0;entryX=0;entryY=0.5;entryDx=0;entryDy=0;" edge="1" parent="8u2EdssxG0yrt-qQL1OU-74" source="8u2EdssxG0yrt-qQL1OU-32" target="8u2EdssxG0yrt-qQL1OU-31">
          <mxGeometry relative="1" as="geometry" />
        </mxCell>
        <mxCell id="8u2EdssxG0yrt-qQL1OU-32" value="&lt;font color=&quot;#006600&quot;&gt;&lt;span style=&quot;font-size: 17px;&quot;&gt;Observed Erosion spot&lt;/span&gt;&lt;/font&gt;" style="rounded=1;whiteSpace=wrap;html=1;fillColor=#ffe6cc;strokeColor=light-dark(#1f1f1e, #996500);fontStyle=1" vertex="1" parent="8u2EdssxG0yrt-qQL1OU-74">
          <mxGeometry y="658.2857142857142" width="200" height="51.42857142857142" as="geometry" />
        </mxCell>
        <mxCell id="8u2EdssxG0yrt-qQL1OU-33" style="edgeStyle=orthogonalEdgeStyle;rounded=0;orthogonalLoop=1;jettySize=auto;html=1;exitX=0;exitY=0.25;exitDx=0;exitDy=0;entryX=0.335;entryY=0.025;entryDx=0;entryDy=0;entryPerimeter=0;" edge="1" parent="8u2EdssxG0yrt-qQL1OU-74" source="8u2EdssxG0yrt-qQL1OU-1" target="8u2EdssxG0yrt-qQL1OU-2">
          <mxGeometry relative="1" as="geometry" />
        </mxCell>
        <mxCell id="8u2EdssxG0yrt-qQL1OU-37" style="edgeStyle=orthogonalEdgeStyle;rounded=0;orthogonalLoop=1;jettySize=auto;html=1;exitX=1;exitY=0.5;exitDx=0;exitDy=0;entryX=0.721;entryY=-0.05;entryDx=0;entryDy=0;entryPerimeter=0;" edge="1" parent="8u2EdssxG0yrt-qQL1OU-74" source="8u2EdssxG0yrt-qQL1OU-1" target="8u2EdssxG0yrt-qQL1OU-13">
          <mxGeometry relative="1" as="geometry" />
        </mxCell>
        <mxCell id="8u2EdssxG0yrt-qQL1OU-38" value="" style="shape=partialRectangle;whiteSpace=wrap;html=1;bottom=1;right=1;left=1;top=0;fillColor=none;routingCenterX=-0.5;" vertex="1" parent="8u2EdssxG0yrt-qQL1OU-74">
          <mxGeometry x="179.5" y="113.14285714285714" width="303" height="20.57142857142857" as="geometry" />
        </mxCell>
        <mxCell id="8u2EdssxG0yrt-qQL1OU-39" style="edgeStyle=orthogonalEdgeStyle;rounded=0;orthogonalLoop=1;jettySize=auto;html=1;exitX=0.5;exitY=1;exitDx=0;exitDy=0;entryX=0.461;entryY=-0.05;entryDx=0;entryDy=0;entryPerimeter=0;" edge="1" parent="8u2EdssxG0yrt-qQL1OU-74" source="8u2EdssxG0yrt-qQL1OU-38" target="8u2EdssxG0yrt-qQL1OU-14">
          <mxGeometry relative="1" as="geometry" />
        </mxCell>
        <mxCell id="8u2EdssxG0yrt-qQL1OU-44" value="" style="shape=partialRectangle;whiteSpace=wrap;html=1;bottom=1;right=1;left=1;top=0;fillColor=none;routingCenterX=-0.5;rotation=-180;" vertex="1" parent="8u2EdssxG0yrt-qQL1OU-74">
          <mxGeometry x="52.5" y="308.57142857142856" width="453" height="10.285714285714285" as="geometry" />
        </mxCell>
        <mxCell id="8u2EdssxG0yrt-qQL1OU-45" style="edgeStyle=orthogonalEdgeStyle;rounded=0;orthogonalLoop=1;jettySize=auto;html=1;exitX=0.5;exitY=1;exitDx=0;exitDy=0;entryX=0.358;entryY=0.9;entryDx=0;entryDy=0;entryPerimeter=0;" edge="1" parent="8u2EdssxG0yrt-qQL1OU-74" source="8u2EdssxG0yrt-qQL1OU-15" target="8u2EdssxG0yrt-qQL1OU-44">
          <mxGeometry relative="1" as="geometry" />
        </mxCell>
        <mxCell id="8u2EdssxG0yrt-qQL1OU-46" style="edgeStyle=orthogonalEdgeStyle;rounded=0;orthogonalLoop=1;jettySize=auto;html=1;exitX=0.75;exitY=1;exitDx=0;exitDy=0;entryX=0.75;entryY=0;entryDx=0;entryDy=0;" edge="1" parent="8u2EdssxG0yrt-qQL1OU-74" source="8u2EdssxG0yrt-qQL1OU-44" target="8u2EdssxG0yrt-qQL1OU-44">
          <mxGeometry relative="1" as="geometry" />
        </mxCell>
        <mxCell id="8u2EdssxG0yrt-qQL1OU-47" style="edgeStyle=orthogonalEdgeStyle;rounded=0;orthogonalLoop=1;jettySize=auto;html=1;exitX=0.5;exitY=1;exitDx=0;exitDy=0;entryX=0.5;entryY=0;entryDx=0;entryDy=0;" edge="1" parent="8u2EdssxG0yrt-qQL1OU-74" source="8u2EdssxG0yrt-qQL1OU-44" target="8u2EdssxG0yrt-qQL1OU-44">
          <mxGeometry relative="1" as="geometry" />
        </mxCell>
        <mxCell id="8u2EdssxG0yrt-qQL1OU-48" style="edgeStyle=orthogonalEdgeStyle;rounded=0;orthogonalLoop=1;jettySize=auto;html=1;exitX=0.25;exitY=1;exitDx=0;exitDy=0;entryX=0.25;entryY=0;entryDx=0;entryDy=0;" edge="1" parent="8u2EdssxG0yrt-qQL1OU-74" source="8u2EdssxG0yrt-qQL1OU-44" target="8u2EdssxG0yrt-qQL1OU-44">
          <mxGeometry relative="1" as="geometry" />
        </mxCell>
        <mxCell id="8u2EdssxG0yrt-qQL1OU-49" value="" style="shape=partialRectangle;whiteSpace=wrap;html=1;bottom=1;right=1;left=1;top=0;fillColor=none;routingCenterX=-0.5;" vertex="1" parent="8u2EdssxG0yrt-qQL1OU-74">
          <mxGeometry x="47.5" y="360" width="555" height="20.57142857142857" as="geometry" />
        </mxCell>
        <mxCell id="8u2EdssxG0yrt-qQL1OU-50" style="edgeStyle=orthogonalEdgeStyle;rounded=0;orthogonalLoop=1;jettySize=auto;html=1;exitX=0.25;exitY=0;exitDx=0;exitDy=0;entryX=0.25;entryY=1;entryDx=0;entryDy=0;" edge="1" parent="8u2EdssxG0yrt-qQL1OU-74" source="8u2EdssxG0yrt-qQL1OU-49" target="8u2EdssxG0yrt-qQL1OU-49">
          <mxGeometry relative="1" as="geometry" />
        </mxCell>
        <mxCell id="8u2EdssxG0yrt-qQL1OU-51" style="edgeStyle=orthogonalEdgeStyle;rounded=0;orthogonalLoop=1;jettySize=auto;html=1;exitX=0.5;exitY=0;exitDx=0;exitDy=0;entryX=0.5;entryY=1;entryDx=0;entryDy=0;" edge="1" parent="8u2EdssxG0yrt-qQL1OU-74" source="8u2EdssxG0yrt-qQL1OU-49" target="8u2EdssxG0yrt-qQL1OU-49">
          <mxGeometry relative="1" as="geometry" />
        </mxCell>
        <mxCell id="8u2EdssxG0yrt-qQL1OU-52" style="edgeStyle=orthogonalEdgeStyle;rounded=0;orthogonalLoop=1;jettySize=auto;html=1;exitX=0.5;exitY=1;exitDx=0;exitDy=0;entryX=0.636;entryY=1.05;entryDx=0;entryDy=0;entryPerimeter=0;" edge="1" parent="8u2EdssxG0yrt-qQL1OU-74" source="8u2EdssxG0yrt-qQL1OU-20" target="8u2EdssxG0yrt-qQL1OU-49">
          <mxGeometry relative="1" as="geometry" />
        </mxCell>
        <mxCell id="8u2EdssxG0yrt-qQL1OU-55" style="edgeStyle=orthogonalEdgeStyle;rounded=0;orthogonalLoop=1;jettySize=auto;html=1;exitX=0.5;exitY=1;exitDx=0;exitDy=0;entryX=0.636;entryY=1.05;entryDx=0;entryDy=0;entryPerimeter=0;" edge="1" parent="8u2EdssxG0yrt-qQL1OU-74">
          <mxGeometry relative="1" as="geometry">
            <mxPoint x="505.5" y="360" as="sourcePoint" />
            <mxPoint x="508.5" y="381.59999999999997" as="targetPoint" />
          </mxGeometry>
        </mxCell>
        <mxCell id="8u2EdssxG0yrt-qQL1OU-56" value="" style="endArrow=classic;html=1;rounded=0;" edge="1" parent="8u2EdssxG0yrt-qQL1OU-74">
          <mxGeometry width="50" height="50" relative="1" as="geometry">
            <mxPoint x="444" y="380.57142857142856" as="sourcePoint" />
            <mxPoint x="444" y="401.1428571428571" as="targetPoint" />
          </mxGeometry>
        </mxCell>
        <mxCell id="8u2EdssxG0yrt-qQL1OU-61" style="edgeStyle=orthogonalEdgeStyle;rounded=0;orthogonalLoop=1;jettySize=auto;html=1;exitX=0.5;exitY=1;exitDx=0;exitDy=0;entryX=0.39;entryY=-0.06;entryDx=0;entryDy=0;entryPerimeter=0;" edge="1" parent="8u2EdssxG0yrt-qQL1OU-74" source="8u2EdssxG0yrt-qQL1OU-24" target="8u2EdssxG0yrt-qQL1OU-25">
          <mxGeometry relative="1" as="geometry" />
        </mxCell>
        <mxCell id="8u2EdssxG0yrt-qQL1OU-68" value="" style="endArrow=classic;html=1;rounded=0;exitX=0.451;exitY=1;exitDx=0;exitDy=0;exitPerimeter=0;" edge="1" parent="8u2EdssxG0yrt-qQL1OU-74" source="8u2EdssxG0yrt-qQL1OU-29">
          <mxGeometry width="50" height="50" relative="1" as="geometry">
            <mxPoint x="582.5" y="534.8571428571429" as="sourcePoint" />
            <mxPoint x="582.5" y="606.8571428571429" as="targetPoint" />
          </mxGeometry>
        </mxCell>
        <mxCell id="8u2EdssxG0yrt-qQL1OU-80" value="" style="endArrow=classic;html=1;rounded=0;exitX=0.451;exitY=1;exitDx=0;exitDy=0;exitPerimeter=0;" edge="1" parent="8u2EdssxG0yrt-qQL1OU-74">
          <mxGeometry width="50" height="50" relative="1" as="geometry">
            <mxPoint x="603" y="257.1428571428571" as="sourcePoint" />
            <mxPoint x="602.5" y="318.85714285714283" as="targetPoint" />
          </mxGeometry>
        </mxCell>
        <mxCell id="8u2EdssxG0yrt-qQL1OU-81" value="" style="endArrow=classic;html=1;rounded=0;exitX=0.451;exitY=1;exitDx=0;exitDy=0;exitPerimeter=0;" edge="1" parent="8u2EdssxG0yrt-qQL1OU-74">
          <mxGeometry width="50" height="50" relative="1" as="geometry">
            <mxPoint x="382.57" y="195.42857142857142" as="sourcePoint" />
            <mxPoint x="382.5" y="236.57142857142856" as="targetPoint" />
          </mxGeometry>
        </mxCell>
        <mxCell id="8u2EdssxG0yrt-qQL1OU-83" value="" style="endArrow=classic;html=1;rounded=0;" edge="1" parent="8u2EdssxG0yrt-qQL1OU-74">
          <mxGeometry width="50" height="50" relative="1" as="geometry">
            <mxPoint x="135.5" y="257.1385714285714" as="sourcePoint" />
            <mxPoint x="205.5" y="257.1385714285714" as="targetPoint" />
          </mxGeometry>
        </mxCell>
      </root>
    </mxGraphModel>
  </diagram>
</mxfile>
